<svg xmlns="http://www.w3.org/2000/svg" width="253.592" height="328.743" viewBox="0 0 253.592 328.743">
  <path id="Path_11" data-name="Path 11" d="M123.215,292.723c-3.758,1.123-6.954,6.163-9.3,9.014q-.553.669-1.114,1.331c-3.523,4.108-8.033,8.255-13.423,7.195-.513-.111-1.027-.233-1.54-.353a127.587,127.587,0,0,1-51.76-25.822l-.357-.3c-3.949-3.916.747-7.621,4.682-6.709.369.085.738.167,1.107.249,4.324.932,40.671,4.259,24.486-12.4a38.1,38.1,0,0,0-6.025-5.228C42.818,241.563,36.964,238.557,7.68,225.023l-.551-.319c-2.3-1.941-2.676-5.733-3.328-8.842A176.888,176.888,0,0,1,.032,190.88L0,190.357c.052-2.958,2.4-4.971,5.127-3.927q1.542.758,3.087,1.514,15.607,7.589,31.578,14.234a146.909,146.909,0,0,0,18.076,6.5,84.474,84.474,0,0,0,17.57,3.154c18.61.972-6.037-19.4-9.06-21.128-18.543-10.615-29.822-16.265-51.166-16.088q-.352,0-.7-.01c-23.875-.847-10.96-26.8-7.25-43.479.6-2.7,2.657-17.126,8.818-15.442q1.621.606,3.242,1.21,16.729,6.177,33.758,11.319c12.008,3.651,26.254,7.37,38.958,5.507,1.827-.268,4.6-.876,4.87-2.881.5-3.688-5.824-8.654-8.071-10.154-16.2-10.812-36.409-14.316-55.1-12.272-.241.024-.481.043-.722.061-3.027.184-15.648.225-14.3-6.325.968-4.71,3.36-8.966,5.632-13.1C30.882,77.145,41.409,61.241,50.453,51l.3-.338a3.836,3.836,0,0,1,4.173-1.283q1.28.527,2.564,1.044C69.214,55.112,81.21,59.542,93.806,60.1c16.888.741-1.979-14.683-6.291-16.845A124.662,124.662,0,0,0,73.98,37.32l-.577-.271c-5.457-3.893,1.692-8.61,4.45-10.153,17.286-9.663,34.9-17.872,52.788-25.947l1.146-.517a3.816,3.816,0,0,1,3.328-.1q1.476.763,2.949,1.537c11.532,6.069,22.831,12.66,34.093,19.312.279.165,25.972,13.571,13.774,18.831q-.547.241-1.092.483a59.167,59.167,0,0,0-9.989,5.294c-4.681,3.311-18.015,14.405-2.642,14.258,12.347-.119,19.652-3.029,31.187-7.349l.612-.167a4.47,4.47,0,0,1,1.258.026l.608.193c3.478,1.859,5.349,6.2,7.5,9.734,5.817,9.54,11.144,19.441,16.358,29.395,1.368,2.612,8.149,14.9-.652,14.343-.328-.019-.658-.037-.986-.055-18.518-.817-28.082,3.006-44.83,10.958-4.122,1.957-24.074,16.9-7.322,17.567a71.824,71.824,0,0,0,15.618-1.331,113.515,113.515,0,0,0,15.855-4.386c9.777-3.3,19.488-6.859,29.08-10.764l.553-.172c3.183-.415,4.165,2.567,4.955,5.045,1.67,5.247,3.36,10.5,4.595,15.892,2.078,9.068,3.765,18.244,5.331,27.434.281,1.655,1.463,8.669-1.167,10.43-2.914,1.952-6.34,2.881-9.675,3.678a30.8,30.8,0,0,1-8.522.674q-.5-.019-.993-.034c-20.344-.449-31.989,5.472-49.684,15.382-2.9,1.623-17.4,11.763-15.693,18.209.547,2.066,3.529,2.259,5.484,2.292a75.78,75.78,0,0,0,21.43-3.467c6.794-2.26,13.634-4.392,20.3-7.086q17.634-7.127,34.927-15.233l.582-.212c7.247-1.218,4,13.427,3.624,15.565-3.132,17.61-5.066,29.241-13.853,44.748-19.664,34.706-52.875,54.914-89.344,60.215-.162.019-.16.019-.321.035-5.481.417-10.184-5.034-13.7-8.924-1.089-1.214-2.171-2.44-3.264-3.653l-.064-.071c1.9,8.095,4.554,16.625,9.085,23.47.182,1.726.388,3.67-.367,5.194-.907,1.832-4.211,1.088-5.155,0-8.026-9.209-10.158-23.05-12.341-34.913m6.321-6.421c4.2,2.64,7.606,7,10.963,10.74q.4.438.792.873c1.339,1.452,4.787,5.99,7.176,5.7.617-.09,1.232-.2,1.848-.3,49.079-8.489,90.532-45.38,95.42-101.971l.013-.159-2.785,1.282q-1.623.739-3.246,1.473c-11.319,5.088-22.839,9.631-34.391,14.036a123.829,123.829,0,0,1-14.591,4.642c-9.815,2.4-43.324,6.707-29.14-16.743,2.151-3.556,5.152-6.415,8.013-9.3a55.036,55.036,0,0,1,6.994-5.849,95.582,95.582,0,0,1,57.751-17.468c.2,0,.4,0,.6,0a41.948,41.948,0,0,0,10.2-2.018c-.05-.444-.1-.89-.153-1.335a235.835,235.835,0,0,0-9.354-42.51l-.08-.252q-1.6.642-3.211,1.275-1.308.515-2.619,1.023c-9.589,3.7-19.326,6.948-29.129,9.893-9.839,2.955-19.8,4.986-30.031,2.835-22.206-4.665,2.66-28.732,9.971-32.526,14.683-7.62,27.267-11.454,43.6-11.571h.261A217.043,217.043,0,0,0,203.541,61.49l-.216-.3q-.838.306-1.677.6-1,.354-1.995.7c-11.257,3.853-18.253,6.094-30.188,5.283-11-.749-17.9-10.3-8.09-20.159a66.684,66.684,0,0,1,16.8-12.682l.232-.115C164.6,24.5,149.089,16.535,134.067,8.663l-.607-.318c-16.708,7.52-34.15,14.5-49.948,24.22.443.192.885.39,1.326.587,7.16,3.26,18.638,7.584,22.594,16.284,4.392,9.659-.907,18.8-10.87,18.446C78.426,67.244,71.543,64.636,54.618,57.8c-.41.472-.814.945-1.219,1.421A196.988,196.988,0,0,0,27.228,99.788a36.242,36.242,0,0,0,7.218.465q.538-.065,1.079-.125A87.67,87.67,0,0,1,92.772,113.94a39.947,39.947,0,0,1,7.1,6.2,20.2,20.2,0,0,1,3.472,5.093c8.252,17.351-18.5,17.973-27.772,16.385a181.008,181.008,0,0,1-20.231-4.485q-19.316-5.643-38.293-12.615-.271.8-.537,1.6a191.731,191.731,0,0,0-8.577,38.894s5.753,1.607,8.685,1.548q.547-.007,1.094-.01c.365,0,.729,0,1.094.006,21.577.383,42.691,9.445,59.711,23.822a51.152,51.152,0,0,1,7.2,7.75,25.143,25.143,0,0,1,3.4,5.873c7.444,18.132-18.344,16.508-27.708,13.948a175.661,175.661,0,0,1-18.864-6.176Q25.241,204.87,8.344,196.773s1.724,14.545,3.691,21.515c0,0,2.428,1.177,3.648,1.75q1.905.9,3.807,1.8c19.313,9.235,44.824,19.369,60.079,36.368,2.631,2.931,5.393,5.932,7.034,9.635,7.435,16.751-12.7,19.649-22.814,19.26a78.213,78.213,0,0,0,7.739,4.6c8.5,4.2,20.013,9.051,29.278,10.695.082.013.165.022.248.029,3.842.185,7.5-6.131,9.618-8.709.373-.449.747-.9,1.124-1.343,2.747-3.207,6.041-6.591,10.122-7.554-2.54-17.4-3.374-35.1-3.6-52.692-20.4,15.148-32.8-28.5-8.239-29,.184,0,.184,0,.369,0a13.7,13.7,0,0,1,8.025,2.823,1269.1,1269.1,0,0,1,10.833-135.9l.052-.4.012-.152.109-.762a4.07,4.07,0,0,1,3.564-3.386l.567.043A4.286,4.286,0,0,1,136.7,69.9c-.15,1.21-.316,2.416-.472,3.624-6.337,49.708-9.057,85.454-10.52,135.619-.375,12.872-.121,25.766.322,38.636.308,8.9,1.12,17.772,1.928,26.634.363,3.986.974,7.944,1.584,11.893m36.584-44.681c8.262.176,14.909,6.649,16.618,15.491,2.1,10.875-6.7,22.611-16.838,22.142a15.4,15.4,0,0,1-9.617-3.367c-6.708-5.218-9.455-15.86-5.627-24,1.909-4.057,4.241-6.184,7.828-8.406a15.415,15.415,0,0,1,6.975-1.853c.222,0,.44-.006.662,0m-.349,8.021a8.8,8.8,0,0,0-4.013,1.006,11.553,11.553,0,0,0-5.586,7.78c-1.253,6.523,3.845,12.5,9.6,12.8a9.031,9.031,0,0,0,3.723-.746,11.154,11.154,0,0,0,5.04-4.859c2.543-5.077.623-11.9-3.955-14.664a9.055,9.055,0,0,0-4.3-1.314c-.169-.006-.338-.01-.509-.008m-55.6-38.5c-3.8.077-7.024,3.666-7.084,7.86a8.049,8.049,0,0,0,4.084,6.986,6.4,6.4,0,0,0,3.091.821c5.3-.127,8.956-6.757,6.094-11.892a7.489,7.489,0,0,0-3.087-3.048,6.645,6.645,0,0,0-2.914-.728c-.093,0-.093,0-.185,0m33.107-87.488a9.993,9.993,0,0,1,4.555,1.145,12.918,12.918,0,0,1,6.291,8.826c1.342,7.27-4.35,14.479-10.989,14.478-6.619,0-12.364-7.217-11-14.479a12.992,12.992,0,0,1,6.305-8.824A9.993,9.993,0,0,1,143,123.657h.284m-.2,7.219a4.248,4.248,0,0,0-1.858.465,5.076,5.076,0,0,0-2.55,3.59c-.465,2.939,1.664,6.061,4.468,5.956a4.091,4.091,0,0,0,2.453-.813,4.751,4.751,0,0,0,.922-.9c2.482-3.163.534-8.16-3.256-8.294-.06,0-.118,0-.178,0" transform="translate(0 0)" fill="#ff9192" fill-rule="evenodd"/>
</svg>
