<svg xmlns="http://www.w3.org/2000/svg" width="38.261" height="36.01" viewBox="0 0 38.261 36.01">
  <g id="chat" transform="translate(-8.4 -9.6)">
    <g id="Icon-Comment" transform="translate(8.4 9.6)">
      <path id="Fill-59" d="M-311.883-434.389h-2.01l1.206-1.688a11.433,11.433,0,0,0,1.849-4.823c-5.707-2.572-8.761-7.4-8.761-13.745,0-9.726,7.315-15.755,19.131-15.755s19.131,6.029,19.131,15.755c0,9.806-7.154,15.755-19.131,15.755h-.8a13.71,13.71,0,0,1-10.61,4.5Zm11.253-33.921c-10.691,0-17.041,5.064-17.041,13.665,0,7.315,4.5,10.61,8.2,12.137l.723.322-.08.8a16.249,16.249,0,0,1-1.286,4.823,10.44,10.44,0,0,0,7.315-4.019l.322-.4h1.768c15.353,0,17.041-9.565,17.041-13.665.08-8.52-6.27-13.665-16.96-13.665Z" transform="translate(319.6 470.4)" fill="#FF9192" />
    </g>
  </g>
</svg>
