<svg xmlns="http://www.w3.org/2000/svg" width="26.517" height="33.146" viewBox="0 0 26.517 33.146">
  <path id="lock" d="M17.258,20.23A2.469,2.469,0,0,0,15.6,24.556v2.3a1.657,1.657,0,1,0,3.315,0v-2.3a2.469,2.469,0,0,0-1.657-4.326ZM25.545,13.6V10.286a8.286,8.286,0,1,0-16.573,0V13.6A4.972,4.972,0,0,0,4,18.573v11.6a4.972,4.972,0,0,0,4.972,4.972H25.545a4.972,4.972,0,0,0,4.972-4.972v-11.6A4.972,4.972,0,0,0,25.545,13.6ZM12.286,10.286a4.972,4.972,0,1,1,9.944,0V13.6H12.286ZM27.2,30.174a1.657,1.657,0,0,1-1.657,1.657H8.972a1.657,1.657,0,0,1-1.657-1.657v-11.6a1.657,1.657,0,0,1,1.657-1.657H25.545A1.657,1.657,0,0,1,27.2,18.573Z" transform="translate(-4 -2)" fill="#ff9192"/>
</svg>
