<svg xmlns="http://www.w3.org/2000/svg" width="35.5" height="35.5" viewBox="0 0 35.5 35.5">
  <g id="graph" transform="translate(-16.4 -16.4)">
    <path id="Pfad_18" data-name="Pfad 18" d="M50.651,49.4H18.9V17.649a1.249,1.249,0,0,0-2.5,0v33A1.267,1.267,0,0,0,17.649,51.9h33a1.249,1.249,0,0,0,0-2.5Z" fill="#fecdc5"/>
    <path id="Pfad_19" data-name="Pfad 19" d="M42.2,52.76V34.749a1.249,1.249,0,0,0-2.5,0V52.812a1.25,1.25,0,1,0,2.5-.052Z" transform="translate(-11.172 -8.199)" fill="#fecdc5"/>
    <path id="Pfad_20" data-name="Pfad 20" d="M30.6,52.76V34.749a1.249,1.249,0,0,0-2.5,0V52.812a1.267,1.267,0,0,0,1.249,1.249A1.313,1.313,0,0,0,30.6,52.76Z" transform="translate(-5.61 -8.199)" fill="#fecdc5"/>
    <path id="Pfad_21" data-name="Pfad 21" d="M65.5,52.76V34.749a1.249,1.249,0,0,0-2.5,0V52.812a1.267,1.267,0,0,0,1.249,1.249A1.313,1.313,0,0,0,65.5,52.76Z" transform="translate(-22.343 -8.199)" fill="#fecdc5"/>
    <path id="Pfad_22" data-name="Pfad 22" d="M77.1,61.054V52.049a1.249,1.249,0,0,0-2.5,0v9.005A1.267,1.267,0,0,0,75.849,62.3,1.233,1.233,0,0,0,77.1,61.054Z" transform="translate(-27.905 -16.494)" fill="#fecdc5"/>
    <path id="Pfad_23" data-name="Pfad 23" d="M53.8,61.054V52.049a1.249,1.249,0,0,0-2.5,0v9.005A1.267,1.267,0,0,0,52.549,62.3,1.233,1.233,0,0,0,53.8,61.054Z" transform="translate(-16.734 -16.494)" fill="#fecdc5"/>
  </g>
</svg>
