<svg xmlns="http://www.w3.org/2000/svg" width="39.217" height="38.717" viewBox="0 0 39.217 38.717">
  <g id="layer1" transform="translate(0 -1036.362)">
    <path id="circle5805" d="M19.609,0A19.5,19.5,0,0,0,0,19.358,19.5,19.5,0,0,0,19.609,38.717,19.5,19.5,0,0,0,39.217,19.358,19.5,19.5,0,0,0,19.609,0Zm0,2.42a16.94,16.94,0,1,1,0,33.877,16.94,16.94,0,1,1,0-33.877ZM12.255,13.295a4.949,4.949,0,0,0-2.451.647,4.835,4.835,0,0,0-2.451,4.192A1.217,1.217,0,0,0,8.56,19.358a1.234,1.234,0,0,0,.884-.353,1.2,1.2,0,0,0,.361-.871,2.414,2.414,0,0,1,1.226-2.1,2.473,2.473,0,0,1,2.451,0,2.414,2.414,0,0,1,1.226,2.1,1.226,1.226,0,0,0,2.451,0,4.835,4.835,0,0,0-2.451-4.192A4.949,4.949,0,0,0,12.255,13.295Zm14.706,0a4.949,4.949,0,0,0-2.451.647,4.835,4.835,0,0,0-2.451,4.192,1.217,1.217,0,0,0,1.206,1.224,1.234,1.234,0,0,0,.884-.353,1.2,1.2,0,0,0,.361-.871,2.414,2.414,0,0,1,1.226-2.1,2.473,2.473,0,0,1,2.451,0,2.414,2.414,0,0,1,1.226,2.1,1.226,1.226,0,0,0,2.451,0,4.835,4.835,0,0,0-2.451-4.192A4.949,4.949,0,0,0,26.962,13.295Zm2.154,10.374a1.229,1.229,0,0,0-1.087.614,9.815,9.815,0,0,1-8.536,4.75,1.212,1.212,0,1,0-.024,2.425A12.287,12.287,0,0,0,30.14,25.512a1.2,1.2,0,0,0,.141-.933,1.212,1.212,0,0,0-.581-.749A1.238,1.238,0,0,0,29.116,23.669Z" transform="translate(0 1036.362)" fill="#FF9192"/>
  </g>
</svg>
