<svg id="Layer_2" data-name="Layer 2" xmlns="http://www.w3.org/2000/svg" width="42" height="44" viewBox="0 0 42 44">
  <g id="people">
    <rect id="Rechteck_17" data-name="Rechteck 17" width="42" height="44" fill="#fecdc5" opacity="0"/>
    <path id="Pfad_11" data-name="Pfad 11" d="M13.826,16.472A6.736,6.736,0,1,0,7.068,9.736a6.747,6.747,0,0,0,6.757,6.736ZM27.34,19.84a5.052,5.052,0,1,0-5.068-5.052A5.06,5.06,0,0,0,27.34,19.84ZM34.1,31.628a1.687,1.687,0,0,0,1.689-1.684,8.449,8.449,0,0,0-13.616-6.652A11.83,11.83,0,0,0,2,31.628a1.687,1.687,0,0,0,1.689,1.684H23.962a1.687,1.687,0,0,0,1.689-1.684" transform="translate(1.946 3.669)" fill="#fecdc5"/>
  </g>
</svg>
